<svg width="64" height="64" xmlns="http://www.w3.org/2000/svg" xml:space="preserve" version="1.1">

 <g>
  <title>Layer 1</title>
  <circle id="svg_1" fill="#089696" r="32" cy="32" cx="32" class="st0"/>
  <circle stroke="null" id="svg_10" fill="#1e2433" r="27.32521" cy="32" cx="32" class="st0"/>
  <path id="svg_2" fill="#231F20" opacity="0.2" d="m37.2,25.3c1,0.9 2,1.8 2.9,2.7l-15,15c-0.2,0.2 -0.7,0.5 -1.4,0.7l0,0l0,0c-0.1,0 -0.2,0 -0.3,0.1l-0.1,0l-0.1,0c-0.3,0.1 -0.6,0.1 -0.9,0.3l-1.3,0.2l0.4,-1.7c0.1,-0.2 0.1,-0.4 0.2,-0.6l0,-0.1l0,-0.1c0,-0.1 0,-0.1 0,-0.2l0,0l0,0c0.2,-0.7 0.5,-1.2 0.7,-1.4l14.9,-14.9m-0.2,-4.1l-16.8,16.9c-0.6,0.6 -1.2,1.7 -1.4,2.8l0,0c0,0 0,0 0,0.1c0,0.1 -0.1,0.3 -0.1,0.4c-0.2,0.7 -0.6,1.9 -1.9,3.2l0,0l-0.9,0.9c-1.1,1.1 -1.3,2.6 -0.5,3.4l1,1c0.3,0.3 0.8,0.5 1.2,0.5c0.7,0 1.5,-0.3 2.1,-1l0.9,-0.9c1.1,-1.1 2.4,-1.6 3.2,-1.7c0.2,0 0.4,-0.1 0.6,-0.1c0.1,0 0.1,0 0.1,0l0,0c1.1,-0.3 2.2,-0.8 2.8,-1.4l16.9,-16.9c-1.9,-2.9 -4.6,-5.1 -7.2,-7.2l0,0z" class="st1"/>
  <g id="svg_3">
   <path id="svg_4" fill="#E0E0D1" d="m37.2,23.3c1,0.9 2,1.8 2.9,2.7l-15,15c-0.2,0.2 -0.7,0.5 -1.4,0.7l0,0l0,0c-0.1,0 -0.2,0 -0.3,0.1l-0.1,0l-0.1,0c-0.3,0.1 -0.6,0.1 -0.9,0.3l-1.3,0.2l0.4,-1.7c0.1,-0.2 0.1,-0.4 0.2,-0.6l0,-0.1l0,-0.1c0,-0.1 0,-0.1 0,-0.2l0,0l0,0c0.2,-0.7 0.5,-1.2 0.7,-1.4l14.9,-14.9m-0.2,-4.1l-16.8,16.9c-0.6,0.6 -1.2,1.7 -1.4,2.8l0,0c0,0 0,0 0,0.1c0,0.1 -0.1,0.3 -0.1,0.4c-0.2,0.7 -0.6,1.9 -1.9,3.2l0,0l-0.9,0.9c-1.1,1.1 -1.3,2.6 -0.5,3.4l1,1c0.3,0.3 0.8,0.5 1.2,0.5c0.7,0 1.5,-0.3 2.1,-1l0.9,-0.9c1.1,-1.1 2.4,-1.6 3.2,-1.7c0.2,0 0.4,-0.1 0.6,-0.1c0.1,0 0.1,0 0.1,0l0,0c1.1,-0.3 2.2,-0.8 2.8,-1.4l16.9,-16.9c-1.9,-2.9 -4.6,-5.1 -7.2,-7.2l0,0z" class="st2"/>
  </g>
  <path id="svg_5" fill="#231F20" opacity="0.2" d="m43.9,27.2l5.2,-5.2c1.1,-1.1 1,-2.9 -0.2,-4.1l-1.4,-1.4c-1.2,-1.2 -3,-1.3 -4.1,-0.2l-5.3,5.3c2.1,1.6 4.2,3.4 5.8,5.6z" class="st1"/>
  <path id="svg_6" fill="#231F20" opacity="0.2" d="m45.6,30.9c-0.8,0.8 -2.1,2.1 -2.1,2.1l-11.3,-11.2c0,0 1.3,-1.3 2.1,-2.1l1.4,-1.4c0.8,-0.8 2,-0.8 2.8,0l8.5,8.5c0.8,0.8 0.8,2 0,2.8l-1.4,1.3z" class="st1"/>
  <path id="svg_7" fill="#089693" d="m43.9,25.2l5.2,-5.2c1.1,-1.1 1,-2.9 -0.2,-4.1l-1.4,-1.4c-1.2,-1.2 -3,-1.3 -4.1,-0.2l-5.3,5.3c2.1,1.6 4.2,3.4 5.8,5.6z" class="st3"/>
  <path id="svg_8" fill="#089696" d="m45.6,28.9c-0.8,0.8 -2.1,2.1 -2.1,2.1l-11.3,-11.2c0,0 1.3,-1.3 2.1,-2.1l1.4,-1.4c0.8,-0.8 2,-0.8 2.8,0l8.5,8.5c0.8,0.8 0.8,2 0,2.8l-1.4,1.3z" class="st3"/>
 </g>
</svg>